Coordinates
version=1
nRows=26
nColumns=30
inDegrees=yes

Units are S.I. units (second, meters, Newtons, ...)
Angles are in degrees.

endheader
time	floatyaw	floatroll	floatpitch	floatx	floaty	floatz	pro_sup_l	deviation_l	flexion_l	cmc_flexion_l	cmc_abduction_l	mp_flexion_l	ip_flexion_l	2mcp_flexion_l	2mcp_abduction_l	2pm_flexion_l	2md_flexion_l	3mcp_flexion_l	3mcp_abduction_l	3pm_flexion_l	3md_flexion_l	4mcp_flexion_l	4mcp_abduction_l	4pm_flexion_l	4md_flexion_l	5mcp_flexion_l	5mcp_abduction_l	5pm_flexion_l	5md_flexion_l
-0.995000	-1.847142	-2.057261	94.906514	-0.007081	-0.271430	0.012193	90.248668	0.946550	-1.086668	26.431276	2.172259	-18.266089	-33.141239	19.916898	5.817885	31.801071	20.359220	8.999880	4.214264	34.489000	22.096726	-2.117302	-3.705744	51.229221	33.708378	-20.995508	-8.028022	59.867443	49.891242
-0.985000	-1.847142	-2.057261	94.906514	-0.007080	-0.271434	0.012238	90.228021	0.927562	-1.090254	26.402152	2.235543	-18.266446	-33.149283	19.969193	5.810915	31.743820	20.361928	9.019558	4.213765	34.462684	22.109641	-2.113156	-3.714870	51.226047	33.708284	-21.043432	-8.015738	59.958942	49.869899
-0.975000	-1.847142	-2.057261	94.906514	-0.007078	-0.271444	0.012288	90.207144	0.906555	-1.102009	26.387700	2.309791	-18.278876	-33.173637	20.016655	5.807512	31.704490	20.368825	9.041686	4.210659	34.441431	22.119792	-2.089196	-3.725026	51.210084	33.699493	-21.074380	-8.005917	60.066437	49.837700
-0.965000	-1.847142	-2.057261	94.906514	-0.007080	-0.271467	0.012342	90.186586	0.883561	-1.121162	26.394119	2.385272	-18.304036	-33.214448	20.051760	5.806425	31.689082	20.376460	9.064143	4.205926	34.425938	22.122743	-2.049023	-3.734543	51.178491	33.681337	-21.086647	-7.998551	60.165653	49.795234
-0.955000	-1.847142	-2.057261	94.906514	-0.007083	-0.271503	0.012394	90.167510	0.860336	-1.146347	26.422899	2.456022	-18.340520	-33.271445	20.071198	5.806602	31.699791	20.383598	9.084817	4.202239	34.419350	22.118948	-1.996651	-3.741653	51.134236	33.655246	-21.081634	-7.995450	60.242067	49.740103
-0.945000	-1.847142	-2.057261	94.906514	-0.007084	-0.271547	0.012438	90.152283	0.840142	-1.175346	26.468741	2.519510	-18.384047	-33.340785	20.075458	5.807750	31.734227	20.391481	9.101191	4.202544	34.425477	22.113391	-1.936349	-3.745040	51.084847	33.624485	-21.063204	-7.999276	60.294461	49.670999
-0.935000	-1.847142	-2.057261	94.906514	-0.007081	-0.271590	0.012469	90.143895	0.826655	-1.204716	26.520433	2.573516	-18.427656	-33.413205	20.067217	5.810196	31.785563	20.402369	9.110704	4.208175	34.445572	22.112679	-1.873757	-3.744316	51.039474	33.593786	-21.037202	-8.011738	60.332178	49.591328
-0.925000	-1.847142	-2.057261	94.906514	-0.007071	-0.271620	0.012485	90.144966	0.822598	-1.230175	26.565630	2.613048	-18.463683	-33.476483	20.049795	5.814423	31.844278	20.417350	9.112327	4.217996	34.475977	22.121031	-1.815809	-3.740169	51.005206	33.568375	-21.010099	-8.032362	60.368389	49.509365
-0.915000	-1.847142	-2.057261	94.906514	-0.007056	-0.271632	0.012482	90.157077	0.828872	-1.248003	26.597190	2.630611	-18.486860	-33.521564	20.026556	5.820654	31.901332	20.434933	9.108229	4.229183	34.508918	22.137589	-1.768529	-3.734193	50.984586	33.552490	-20.986480	-8.058551	60.413450	49.434664
-0.905000	-1.847142	-2.057261	94.906514	-0.007037	-0.271623	0.012463	90.180369	0.844485	-1.256679	26.616425	2.620608	-18.496444	-33.547643	20.001014	5.828646	31.951445	20.451373	9.103653	4.238880	34.536660	22.156837	-1.734603	-3.728534	50.976148	33.548264	-20.966970	-8.086702	60.471437	49.373556
-0.895000	-1.847142	-2.057261	94.906514	-0.007015	-0.271597	0.012430	90.213019	0.867037	-1.257488	26.630526	2.584770	-18.495671	-33.561679	19.976717	5.837620	31.994598	20.462537	9.104237	4.245491	34.556347	22.171875	-1.713156	-3.725420	50.977504	33.555609	-20.948715	-8.113548	60.540280	49.327228
-0.885000	-1.847142	-2.057261	94.906514	-0.006990	-0.271561	0.012386	90.250882	0.893314	-1.253593	26.646321	2.533874	-18.489089	-33.572782	19.956237	5.846404	32.034843	20.466158	9.112422	4.248916	34.571702	22.178331	-1.701876	-3.726543	50.988056	33.572850	-20.928631	-8.136978	60.613847	49.293625
-0.875000	-1.847142	-2.057261	94.906514	-0.006961	-0.271522	0.012338	90.287975	0.919746	-1.248188	26.665444	2.483644	-18.479997	-33.586244	19.939739	5.853895	32.077141	20.463145	9.125736	4.249948	34.589855	22.176368	-1.699344	-3.732419	51.008686	33.597406	-20.907182	-8.155979	60.684049	49.271212
-0.865000	-1.847142	-2.057261	94.906514	-0.006931	-0.271489	0.012291	90.317960	0.942813	-1.242916	26.684073	2.447380	-18.469600	-33.601442	19.924424	5.859700	32.124064	20.457247	9.138251	4.249510	34.615576	22.169834	-1.705714	-3.742124	51.038938	33.626164	-20.889961	-8.169985	60.742461	49.261300
-0.855000	-1.847142	-2.057261	94.906514	-0.006904	-0.271466	0.012252	90.335919	0.959522	-1.237471	26.696279	2.430433	-18.457690	-33.613940	19.905879	5.864472	32.174041	20.453364	9.143984	4.248201	34.647344	22.163691	-1.721767	-3.753795	51.074825	33.655668	-20.885901	-8.178181	60.782083	49.267048
-0.845000	-1.847142	-2.057261	94.906514	-0.006883	-0.271455	0.012226	90.339629	0.967918	-1.230532	26.697990	2.429789	-18.443809	-33.619461	19.880952	5.869513	32.221826	20.455537	9.139872	4.246246	34.678104	22.161573	-1.747448	-3.765682	51.109726	33.682375	-20.902976	-8.179354	60.799446	49.289984
-0.835000	-1.847142	-2.057261	94.906514	-0.006872	-0.271455	0.012213	90.330072	0.967541	-1.221329	26.689406	2.437865	-18.428131	-33.617167	19.850366	5.875779	32.260850	20.465504	9.126700	4.243627	34.699906	22.164642	-1.780826	-3.776986	51.137923	33.702980	-20.943675	-8.172530	60.796080	49.326791
-0.825000	-1.847142	-2.057261	94.906514	-0.006871	-0.271463	0.012214	90.311373	0.959713	-1.210698	26.675250	2.446797	-18.411697	-33.610744	19.819026	5.883043	32.286314	20.482204	9.107808	4.240194	34.709109	22.171793	-1.817929	-3.787745	51.158135	33.714720	-21.002995	-8.158176	60.778173	49.368950
-0.815000	-1.847142	-2.057261	94.906514	-0.006877	-0.271478	0.012228	90.290176	0.947482	-1.200935	26.663191	2.450479	-18.395985	-33.606931	19.793559	5.890005	32.297358	20.502175	9.086821	4.235779	34.708715	22.180569	-1.853462	-3.797791	51.174366	33.715625	-21.070454	-8.139200	60.754523	49.405999
-0.805000	-1.847142	-2.057261	94.906514	-0.006886	-0.271497	0.012251	90.274378	0.935007	-1.194804	26.661222	2.444721	-18.382262	-33.612445	19.778828	5.895497	32.297008	20.520808	9.066408	4.230384	34.706299	22.188127	-1.881681	-3.805709	51.193116	33.704861	-21.135041	-8.120864	60.734271	49.430931
-0.795000	-1.847142	-2.057261	94.906514	-0.006893	-0.271516	0.012278	90.271280	0.926445	-1.194590	26.674795	2.427769	-18.371269	-33.630774	19.776002	5.900014	32.289940	20.534282	9.049232	4.224461	34.708915	22.191946	-1.896691	-3.808976	51.218555	33.683298	-21.189929	-8.109236	60.726088	49.444691
-0.785000	-1.847142	-2.057261	94.906514	-0.006897	-0.271530	0.012302	90.285663	0.924776	-1.201604	26.704370	2.401977	-18.363184	-33.659847	19.783159	5.906325	32.279842	20.541496	9.039724	4.219123	34.718588	22.190427	-1.892758	-3.805586	51.249062	33.653984	-21.234326	-8.108747	60.738912	49.456808
-0.775000	-1.847142	-2.057261	94.906514	-0.006893	-0.271532	0.012317	90.318341	0.931071	-1.215716	26.743963	2.374603	-18.357263	-33.690837	19.797122	5.918313	32.268355	20.544883	9.043657	4.216066	34.731774	22.183587	-1.866440	-3.796199	51.278060	33.621892	-21.272307	-8.120157	60.782152	49.480865
-0.765000	-1.847142	-2.057261	94.906514	-0.006878	-0.271516	0.012320	90.365566	0.944408	-1.234435	26.781397	2.355262	-18.350961	-33.708484	19.814633	5.938360	32.256091	20.549282	9.064019	4.217066	34.743207	22.173806	-1.821207	-3.785022	51.299020	33.592730	-21.310320	-8.140203	60.862778	49.526264
-0.755000	-1.847142	-2.057261	94.906514	-0.006851	-0.271475	0.012314	90.419386	0.962344	-1.251871	26.800793	2.350492	-18.339339	-33.693843	19.832352	5.964833	32.244348	20.559103	9.095543	4.223167	34.751194	22.166148	-1.771844	-3.778355	51.311200	33.571408	-21.354772	-8.163331	60.978903	49.590027
-0.745000	-1.847142	-2.057261	94.906514	-0.006809	-0.271412	0.012311	90.468906	0.981743	-1.258652	26.787118	2.359334	-18.316041	-33.629791	19.846766	5.991418	32.235486	20.575188	9.122890	4.233873	34.760122	22.167485	-1.743813	-3.781347	51.321743	33.560916	-21.409507	-8.184698	61.113357	49.652882
